<svg id="Layer_1" data-name="Layer 1" xmlns="http://www.w3.org/2000/svg" viewBox="0 0 904.56 715.77"><defs><style>.cls-1{fill:#a6a05b;}.cls-2{fill:#c1d989;}.cls-3{fill:#7d9448;}.cls-4{fill:#363940;}.cls-5{fill:#dbd15e;}.cls-6,.cls-7{fill:#5b6e30;}.cls-6{stroke:#363940;stroke-miterlimit:10;}.cls-8{fill:none;}</style></defs><path class="cls-1" d="M393.08,849.75c-22.33-26.13-40.43-45.11-47.54-78-2.45-11.34-4.51-22.93-2.47-34.53,7-40,46.18-67,84.27-72.46,29.85-4.31,58,8.82,80,28.76,19.42,17.67,27.36,36.52,34.45,61.39s14.75,47.36,6.22,72.86c-7.41,22.17-26.27,30.73-46.28,39.29-27.25,11.65-58.66,5.55-85.9-2.87-6.07-1.88-11.16-5.87-16.92-8.67-2.22-1.09-4.63-1.68-6.34-3.72S390.62,846.86,393.08,849.75Z" transform="translate(-80.07 -277.41)"/><path class="cls-2" d="M675.82,442.33a637.52,637.52,0,0,0-29,69.33q-2.24,13.14-5.17,26.14c-4.35,19.63-8.57,39.23-11.92,59.07-3.09,18.29-5.46,36.35-6.09,54.89-.65,19.31,4.49,36.57,8.6,55.28,6.29,28.61,10.52,57.65,20,85.46,5.11,14.91,15.26,25.47,23.61,38.59,10.27,16.16,27.54,18.27,43.1,7.77,20.41-13.77,28.31-33.2,35.95-55.37,4.05-11.75,7.87-23.54,10-35.81,3.42-19.75,2.66-40.22,6.81-59.88,5.87-27.77,19.6-48.53,34.79-71.94,13.81-21.3,21.37-42.65,23.88-67.68,1.83-18.31-5.41-36.43-13.18-52.64-10.22-21.33-29.33-40.54-49-54-11.08-7.62-27.25-10.75-40.55-10.89-12.22-.12-22.76-1.48-33.51,4.12C686.17,438.93,671.78,441.12,675.82,442.33Z" transform="translate(-80.07 -277.41)"/><path class="cls-3" d="M299.92,394.61c12.55,60.23,29.68,119.31,42,179.56.93,4.55.93,15.71,5.74,18.66,2.93,1.8,12.83-.61,15.78-1.21,23.3-4.69,46.13-18.56,68.69-26.26,19.13-6.54,39-11.37,57.34-20,14-6.6,31.83-11.6,43.1-22.46,5.28-5.1,9.35-7.47,8.75-15-1.58-20-11.77-39.45-16.46-58.88-5.2-21.55-10.91-43.58-18.3-64.45-5.67-16-7-35.82-18.39-49.08-10.88-12.62-17.82-4.32-32.28.81-23,8.16-45.92,14.2-68,24.83-21.08,10.15-42.43,20.31-63.89,29.55-4.83,2.08-9,4.31-13.88,5.71C306.77,397.34,300,398,299.92,394.61Z" transform="translate(-80.07 -277.41)"/><path class="cls-4" d="M513.89,595.92c-5.27.13-5.26,7.85,0,8C519.16,603.78,519.15,596.06,513.89,595.92Z" transform="translate(-80.07 -277.41)"/><path class="cls-4" d="M542.81,575.67c-5.28.14-5.26,7.86,0,8C548.08,583.54,548.07,575.82,542.81,575.67Z" transform="translate(-80.07 -277.41)"/><path class="cls-4" d="M557.26,616.16c-5.27.13-5.25,7.85,0,8C562.54,624,562.52,616.3,557.26,616.16Z" transform="translate(-80.07 -277.41)"/><path class="cls-4" d="M537,607.48c-5.27.13-5.25,7.86,0,8C542.3,615.35,542.28,607.63,537,607.48Z" transform="translate(-80.07 -277.41)"/><path class="cls-4" d="M551.48,636.4c-5.27.13-5.26,7.85,0,8C556.75,644.27,556.74,636.54,551.48,636.4Z" transform="translate(-80.07 -277.41)"/><path class="cls-4" d="M531.24,624.83c-5.27.13-5.26,7.86,0,8C536.51,632.7,536.5,625,531.24,624.83Z" transform="translate(-80.07 -277.41)"/><path class="cls-4" d="M508.11,613.27c-5.27.13-5.26,7.85,0,8C513.38,621.13,513.37,613.41,508.11,613.27Z" transform="translate(-80.07 -277.41)"/><path class="cls-4" d="M525.46,645.07c-5.27.13-5.26,7.86,0,8C530.73,652.94,530.72,645.22,525.46,645.07Z" transform="translate(-80.07 -277.41)"/><path class="cls-4" d="M548.59,665.31c-5.27.13-5.26,7.86,0,8C553.86,673.18,553.85,665.46,548.59,665.31Z" transform="translate(-80.07 -277.41)"/><path class="cls-4" d="M563.05,656.64c-5.27.13-5.26,7.85,0,8C568.32,664.51,568.31,656.78,563.05,656.64Z" transform="translate(-80.07 -277.41)"/><path class="cls-4" d="M560.16,595.92c-5.28.13-5.26,7.85,0,8C565.43,603.78,565.42,596.06,560.16,595.92Z" transform="translate(-80.07 -277.41)"/><path class="cls-4" d="M528.35,587.24c-5.27.13-5.26,7.86,0,8C533.62,595.11,533.61,587.39,528.35,587.24Z" transform="translate(-80.07 -277.41)"/><path class="cls-4" d="M574.61,639.29c-5.27.13-5.25,7.85,0,8C579.89,647.16,579.87,639.43,574.61,639.29Z" transform="translate(-80.07 -277.41)"/><path class="cls-4" d="M577.51,674c-5.28.13-5.26,7.85,0,8C582.78,681.86,582.76,674.13,577.51,674Z" transform="translate(-80.07 -277.41)"/><path class="cls-4" d="M560.16,682.66c-5.28.13-5.26,7.86,0,8C565.43,690.53,565.42,682.81,560.16,682.66Z" transform="translate(-80.07 -277.41)"/><path class="cls-4" d="M577.51,700c-5.28.13-5.26,7.86,0,8C582.78,707.88,582.76,700.16,577.51,700Z" transform="translate(-80.07 -277.41)"/><path class="cls-4" d="M730.76,850.37c-5.27.13-5.26,7.86,0,8C736,858.24,736,850.52,730.76,850.37Z" transform="translate(-80.07 -277.41)"/><path class="cls-4" d="M719.19,818.57c-5.27.13-5.26,7.85,0,8C724.47,826.44,724.45,818.71,719.19,818.57Z" transform="translate(-80.07 -277.41)"/><path class="cls-4" d="M727.87,792.54c-5.28.13-5.26,7.86,0,8C733.14,800.41,733.13,792.69,727.87,792.54Z" transform="translate(-80.07 -277.41)"/><path class="cls-4" d="M745.22,775.19c-5.28.13-5.26,7.86,0,8C750.49,783.06,750.48,775.34,745.22,775.19Z" transform="translate(-80.07 -277.41)"/><path class="cls-4" d="M774.13,775.19c-5.27.13-5.26,7.86,0,8C779.41,783.06,779.39,775.34,774.13,775.19Z" transform="translate(-80.07 -277.41)"/><path class="cls-4" d="M756.78,786.76c-5.27.13-5.26,7.85,0,8C762.06,794.63,762,786.9,756.78,786.76Z" transform="translate(-80.07 -277.41)"/><path class="cls-4" d="M748.11,804.11c-5.27.13-5.26,7.85,0,8C753.38,812,753.37,804.25,748.11,804.11Z" transform="translate(-80.07 -277.41)"/><path class="cls-4" d="M745.22,824.35c-5.28.13-5.26,7.85,0,8C750.49,832.22,750.48,824.49,745.22,824.35Z" transform="translate(-80.07 -277.41)"/><path class="cls-4" d="M751,841.7c-5.27.13-5.26,7.85,0,8C756.27,849.57,756.26,841.84,751,841.7Z" transform="translate(-80.07 -277.41)"/><path class="cls-4" d="M759.67,830.13c-5.27.13-5.25,7.86,0,8C765,838,764.93,830.28,759.67,830.13Z" transform="translate(-80.07 -277.41)"/><path class="cls-4" d="M765.46,807c-5.27.13-5.26,7.85,0,8C770.73,814.87,770.72,807.14,765.46,807Z" transform="translate(-80.07 -277.41)"/><path class="cls-4" d="M777,792.54c-5.27.13-5.25,7.86,0,8C782.3,800.41,782.28,792.69,777,792.54Z" transform="translate(-80.07 -277.41)"/><path class="cls-4" d="M788.59,760.73c-5.27.14-5.26,7.86,0,8C793.86,768.6,793.85,760.88,788.59,760.73Z" transform="translate(-80.07 -277.41)"/><path class="cls-4" d="M771.24,757.84c-5.27.13-5.26,7.86,0,8C776.51,765.71,776.5,758,771.24,757.84Z" transform="translate(-80.07 -277.41)"/><path class="cls-4" d="M782.81,743.39c-5.28.13-5.26,7.85,0,8C788.08,751.25,788.07,743.53,782.81,743.39Z" transform="translate(-80.07 -277.41)"/><path class="cls-4" d="M777,728.93c-5.27.13-5.25,7.85,0,8C782.3,736.8,782.28,729.07,777,728.93Z" transform="translate(-80.07 -277.41)"/><path class="cls-4" d="M788.59,720.25c-5.27.13-5.26,7.86,0,8C793.86,728.12,793.85,720.4,788.59,720.25Z" transform="translate(-80.07 -277.41)"/><path class="cls-4" d="M779.92,702.9c-5.28.13-5.26,7.86,0,8C785.19,710.77,785.17,703.05,779.92,702.9Z" transform="translate(-80.07 -277.41)"/><path class="cls-4" d="M788.59,691.34c-5.27.13-5.26,7.85,0,8C793.86,699.21,793.85,691.48,788.59,691.34Z" transform="translate(-80.07 -277.41)"/><path class="cls-4" d="M785.7,676.88c-5.27.13-5.26,7.85,0,8C791,684.75,791,677,785.7,676.88Z" transform="translate(-80.07 -277.41)"/><path class="cls-4" d="M791.48,656.64c-5.27.13-5.26,7.85,0,8C796.75,664.51,796.74,656.78,791.48,656.64Z" transform="translate(-80.07 -277.41)"/><path class="cls-5" d="M651.21,416.71c-9.05-13.56-29.17-31.78-16-48.39,6.49-8.17,14.78-8.65,24.5-8.18,20.31,1,41.81,29.47,25.58,47.3-6.52,7.17-15.32,5.64-24,6.7C654.13,415,653.35,414.18,651.21,416.71Z" transform="translate(-80.07 -277.41)"/><path class="cls-5" d="M412.69,597c8.48,4.08,42.14,13.9,32.62,29.66-2.81,4.66-8.25,5.92-13.33,7.29-12.89,3.49-32,6.37-35.94-10.19-1.84-7.73-2.36-20,5-25C404.39,596.49,413.33,593.57,412.69,597Z" transform="translate(-80.07 -277.41)"/><path class="cls-5" d="M605,792.2c8.7,3.61,29.73,7.51,27.93,21.7-.73,5.78-2.66,7.36-7.86,10-8.92,4.44-20.12,5.4-25.77-3.94C592,807.87,597.77,789.22,605,792.2Z" transform="translate(-80.07 -277.41)"/><path class="cls-6" d="M241.4,278.15c7.31,6.36,28.61,18.39,29.2,31.85.11,2.37-2.41,6.9-2.83,9.5-1.12,6.89-.63,15.29-.42,22.43.6,19.81,1.48,40.78,3.21,60.45,2.94,33.42.2,69.91,14.2,100.39,16.52,36,30.77,73.57,46.95,109.87,5.93,13.3,11.46,28.4,12.48,43.76.89,13.28-.95,16.89-7.8,26.18-5,6.81-4.16,7.36-8.18,1.25-8.39-12.74-13.91-27.43-20.28-41.74-12.85-28.9-25.29-58.35-39.68-86.15-7.56-14.6-15.59-27.28-21.13-43.35-5.11-14.84-7.06-28.47-9.66-44.22-4.88-29.57-5.29-61.05-7.3-91.28a281.5,281.5,0,0,1,.4-42.49c.79-9.15,3.54-17.65,4.73-26.61.68-5.18.83-10.63,1.45-15.62C237.39,287.1,238.9,281.81,241.4,278.15Z" transform="translate(-80.07 -277.41)"/><path class="cls-2" d="M554.37,362.81a187.56,187.56,0,0,0-9.11,39.31c1.2,2.31,2.32,4.66,3.38,7a105.73,105.73,0,0,0,7.08,14.42c11.52,20.65,18.5,42.89,21.89,66.24,2.74,18.9,5.88,36.87,10.09,55.47,2.31,10.24-.54,28.76,5.54,37.38,17.94-.61,12.07-45.31,11.81-56.42-.81-34.15-.88-68-10.07-101.16C590.31,408.28,583.8,346.2,554.37,362.81Z" transform="translate(-80.07 -277.41)"/><path class="cls-5" d="M255.1,826.9l-18.23-24.74-4.77-13.83c.29-3.87,5.73-9.6,8.5-12,8-7,21.94-11.74,32.65-11.66,18.94.14,34.94,22,34.46,40.38-.37,14.27-29.47,30.78-43,27.2C260.56,831.15,249.17,824.62,255.1,826.9Z" transform="translate(-80.07 -277.41)"/><path class="cls-5" d="M628.66,925.77l6.26-30.09L642,882.9c3.07-2.37,11-2.14,14.6-1.69,10.54,1.31,23.4,8.5,30.48,16.52,12.55,14.2,6.92,40.73-7.06,52.62-10.87,9.25-42.58-1.39-49-13.86C629.14,932.67,626.41,919.83,628.66,925.77Z" transform="translate(-80.07 -277.41)"/><path class="cls-1" d="M146.66,423.53c17.21,12.69,31,21.19,42.05,38.59,5.62,8.83,12.12,16.62,16.7,26.13,8.57,17.82,16.73,35.84,24.63,54,10,22.82,24.63,47,29.17,71.65,3.47,18.93,3.44,41.4.31,60.5-6.14,37.46-42.6,59.17-53.14,94.41-2.16,7.19-3.74,12.05-8.89,18-12.73,14.69-24.92,11-36.41-3.25-27.67-34.36-52.53-67.94-63.2-111.59-8.15-33.33-17.71-65.7-17.81-100.32C80,545.49,90.25,519.2,97.86,494.4c7.52-24.47,18.51-44,34.37-63.35C138.31,423.63,143,420.79,146.66,423.53Z" transform="translate(-80.07 -277.41)"/><path class="cls-7" d="M294.13,887.63c12.1,22.35,22.69,42.73,43.31,58.16,16.26,12.16,31.87,17.29,51.77,21.33,23.91,4.85,47,10.3,71.39,12.39,24.13,2.08,48.24,4.92,72.43,6.11,15.94.78,31.49,3.12,47.34,4.44,10.13.85,20.22-.22,30.33.89,15.73,1.71,43.6,8.12,48.85-13.29-15-4.57-25.38-13.73-38.9-21.9-26.11-15.77-58.15-13.37-86.3-23.22-14.83-5.18-31.17-9.51-45.2-16.59-9.32-4.71-17.95-10.2-27.75-14-22.38-8.6-41.54-21.22-65.59-25.27-19.09-3.22-33.73-14.9-52.23-19.64-13.49-3.45-24.24,2.09-36.59,7.13-8,3.26-11.22,5.45-11.44,14.79C295.43,884.2,294.07,889.82,294.13,887.63Z" transform="translate(-80.07 -277.41)"/><path class="cls-8" d="M707.41,483.11c-12.45,43.66-22.34,84-31.29,127.8-5.78,28.29-4.06,57.74-4.06,86.66" transform="translate(-80.07 -277.41)"/><path class="cls-6" d="M966.61,625.55c9.51-106.06,27.84-160.17,10-177.84-8.08-8-21.1-37.95-33.92-68.16-15.4-36.31-30.5-73-36.39-72.74-10.78.55-44.69-20.09-56.14-14.81s-70.05,3.92-70.05,3.92L764,344.19l58.56,24.34,42.68,3.72L909,461.16l.51,89.7-6.67,47.32-11.31,53.56Z" transform="translate(-80.07 -277.41)"/><path class="cls-4" d="M401.92,712.21c-2.6-9.47-16.14-10.49-19.72-1.25-3.23,6.51,2.41,14.75,9.6,14.54A10.54,10.54,0,0,0,401.92,712.21Z" transform="translate(-80.07 -277.41)"/><path class="cls-4" d="M401.92,741.23c-2.6-9.47-16.14-10.49-19.72-1.26-3.23,6.52,2.41,14.76,9.6,14.55A10.54,10.54,0,0,0,401.92,741.23Z" transform="translate(-80.07 -277.41)"/><path class="cls-4" d="M375.14,732.3c-2.6-9.47-16.14-10.49-19.72-1.26-3.23,6.52,2.41,14.76,9.59,14.55A10.54,10.54,0,0,0,375.14,732.3Z" transform="translate(-80.07 -277.41)"/><path class="cls-4" d="M513.52,312.68c-2.6-9.47-16.14-10.49-19.72-1.26-3.23,6.52,2.41,14.76,9.6,14.55A10.53,10.53,0,0,0,513.52,312.68Z" transform="translate(-80.07 -277.41)"/><path class="cls-4" d="M544.77,319.37c-2.6-9.46-16.14-10.48-19.72-1.25-3.23,6.52,2.41,14.76,9.59,14.55A10.55,10.55,0,0,0,544.77,319.37Z" transform="translate(-80.07 -277.41)"/><path class="cls-4" d="M520.22,335c-2.6-9.47-16.14-10.49-19.72-1.26-3.23,6.52,2.41,14.76,9.59,14.55A10.54,10.54,0,0,0,520.22,335Z" transform="translate(-80.07 -277.41)"/><path class="cls-4" d="M183.18,406.42c-2.6-9.46-16.14-10.49-19.72-1.25-3.22,6.51,2.41,14.76,9.6,14.54A10.53,10.53,0,0,0,183.18,406.42Z" transform="translate(-80.07 -277.41)"/><path class="cls-4" d="M210,393c-2.6-9.46-16.14-10.49-19.72-1.25-3.23,6.51,2.41,14.75,9.59,14.54A10.54,10.54,0,0,0,210,393Z" transform="translate(-80.07 -277.41)"/><path class="cls-4" d="M201,422.05c-2.6-9.47-16.14-10.49-19.72-1.26-3.23,6.52,2.41,14.76,9.59,14.55A10.54,10.54,0,0,0,201,422.05Z" transform="translate(-80.07 -277.41)"/><path class="cls-4" d="M810.38,437.67c-2.6-9.46-16.14-10.49-19.72-1.25-3.23,6.51,2.41,14.75,9.6,14.54A10.54,10.54,0,0,0,810.38,437.67Z" transform="translate(-80.07 -277.41)"/><path class="cls-4" d="M832.7,419.82c-2.6-9.47-16.14-10.49-19.72-1.26-3.23,6.52,2.41,14.76,9.6,14.55A10.54,10.54,0,0,0,832.7,419.82Z" transform="translate(-80.07 -277.41)"/><path class="cls-4" d="M832.7,446.6c-2.6-9.47-16.14-10.49-19.72-1.25-3.23,6.51,2.41,14.75,9.6,14.54A10.54,10.54,0,0,0,832.7,446.6Z" transform="translate(-80.07 -277.41)"/><path class="cls-4" d="M178.72,696.82c-1.1-4.18-1.65-8.5-3.11-12.56l.09.21a2.72,2.72,0,0,0-.11-.25,21.47,21.47,0,0,0-.87-2.12l-1.14-2.63c-2.25-4.89-2.27-5.87-7.31-15.53-.6-1.6-1.18-3.2-1.86-4.76-1.22-3.25-2.48-6.48-3.89-9.66-2.76-7.37-5-14.93-7.42-22.42A163.88,163.88,0,0,1,147.76,607c-1.79-7.21-3.39-14.49-4.46-21.85-2.44-14.33-2-9.44-3.66-25.85-1.2-10.87-2.5-21.73-4-32.57-.17-3.52-.29-7-.28-10.57-.62-14.43-1.49-28.86-1.39-43.3a376.45,376.45,0,0,0-9.3,38.53c-1.59,7.34-3,14.7-4.12,22.14-2.84,13.14-3.42,26.65-4.49,40a129.79,129.79,0,0,0-.35,20.77,106.16,106.16,0,0,0,.48,13.7,91.4,91.4,0,0,0,.84,10.46c.76,6.34,2.72,12.42,3.88,18.68a227.11,227.11,0,0,0,5.51,24.74,142.35,142.35,0,0,0,3.87,15.21,154.36,154.36,0,0,0,7.75,23.63c2.31,4.91.52,2.84,5.73,11.84,4.48,7.05,11.44,16.59,20.6,16.54C181.79,728.26,181.57,709.77,178.72,696.82Z" transform="translate(-80.07 -277.41)"/><path class="cls-4" d="M187.46,570.94a33.51,33.51,0,0,0-.38-5.48c-.44-4.83-2.48-9.32-4.31-13.78l.12.29c-1.6-4.43-3.69-8.65-5.64-12.94l-.19-.49q-2-6.35-4.4-12.53a123.24,123.24,0,0,0-6.74-16.41.77.77,0,0,1-.07-.16c-2.65-10-5.33-20-8.42-29.92-.23,3.07-.47,6.15-.69,9.22a9,9,0,0,0-1.53-2.51c.86,2.3.26,4.65.29,7,.21,1.71.42,3.25.6,4.88-.31,5.08-.56,10.16-.68,15.25a173.12,173.12,0,0,0-.24,22.89,91.77,91.77,0,0,0,.55,16.57c.43,9.55,2.1,20.06,9.12,27.11,8.31,7,17.11,5,20.88-1.51a15.11,15.11,0,0,0,1.72-7.52Z" transform="translate(-80.07 -277.41)"/><path class="cls-4" d="M571.55,879.61c-2.6-9.46-16.14-10.49-19.72-1.25-3.22,6.51,2.41,14.75,9.6,14.54A10.53,10.53,0,0,0,571.55,879.61Z" transform="translate(-80.07 -277.41)"/><path class="cls-4" d="M593.87,861.75c-2.59-9.46-16.14-10.48-19.72-1.25-3.22,6.52,2.41,14.76,9.6,14.55A10.54,10.54,0,0,0,593.87,861.75Z" transform="translate(-80.07 -277.41)"/><path class="cls-4" d="M600.57,890.77c-2.6-9.46-16.14-10.49-19.72-1.25-3.23,6.51,2.41,14.75,9.6,14.54A10.54,10.54,0,0,0,600.57,890.77Z" transform="translate(-80.07 -277.41)"/><path class="cls-5" d="M505.51,439.81a54.87,54.87,0,0,0-1.87-8.48c-.62-3.25-1.72-6.37-2.66-9.54-1.45-5.62-1.93-9.88-3.2-15.11a30.54,30.54,0,0,0-3.62-8.71c-.86-1.17-1.78-2.28-2.75-3.36-.22-.3-.45-.59-.7-.87a49.78,49.78,0,0,0-3.92-4.9l-.81-1c-.1-.15-.19-.31-.28-.47a9.15,9.15,0,0,0-.59-.8,5,5,0,0,0-.33-.49,16,16,0,0,0-2-2.44l-.21-.48a7.73,7.73,0,0,0-3.37-3.08,2.29,2.29,0,0,0-.21-.23,21.13,21.13,0,0,0-3.5-2.49l-.06-.07c-3.79-3.76-11.47-1.79-11.44,4.05a17.77,17.77,0,0,0,1.51,5.52c.81,2.38,1.62,4.75,2.6,7.07,1.73,3.89,2.92,8.06,5.17,11.71.17.22.33.45.5.68,1.12,7.21,1.77,10.19,2.25,15.41,1.31,9.51.88,13.11,2.81,26.61.18,2.09.1,4.2.25,6.29l0-.11c0,.11,0,.21,0,.32v.06c.59,5.56-.07,11.15-.43,16.71-.1.41-.2.82-.29,1.23-1,5-2.73,9.85-4,14.8-.92,5-2.61,9.85-3.85,14.78-.15.76-.3,1.54-.4,2.31,0,.05,0,.1,0,.14s0,.23,0,.35a12.29,12.29,0,0,0,1.45,8.39c3.74,6.79,13.66,8.08,19.17,2.81a12.87,12.87,0,0,0,1.12-1,26.1,26.1,0,0,0,2.1-2.59,15.54,15.54,0,0,0,1.25-1.65l0,0a14.83,14.83,0,0,0,1.26-2.48,30.44,30.44,0,0,0,2.86-7.28c2.07-6.24,4.06-12.54,4.65-19.13,0-.12,0-.23,0-.34q.63-3.56,1-7.12c.17-4.07.93-8.08,1.14-12.14C506.41,455.05,506.55,447.36,505.51,439.81Z" transform="translate(-80.07 -277.41)"/></svg>