<svg id="Layer_1" data-name="Layer 1" xmlns="http://www.w3.org/2000/svg" viewBox="0 0 196.74 258.55"><defs><style>.cls-1{fill:#fabea7;opacity:0.49;}.cls-2{fill:#ffb299;opacity:0.74;}</style></defs><path class="cls-1" d="M597.16,322.7c-15.68,21.24-14.23,46.44-14,49.89,1.28,18,7.94,18.1,10.34,38.33,2.39,20.06-3.6,24.54-3.65,46.24,0,16.32-.08,42,14,52.93,6.09,4.74,15.85,7.53,82.74-14.6,59.73-19.76,67.53-27.14,72.4-32.85,14.61-17.12,25.27-45.43,18.86-71.79-9-36.93-44.67-42.12-48.06-80.31-1.48-16.64,4.6-23.44-1.83-34.68-9-15.76-33.75-24.83-53.54-19.47-17.85,4.84-16.13,17.22-50.5,44.41C607.57,313.75,604,313.47,597.16,322.7Z" transform="translate(-583.03 -254.84)"/><path d="M646.08,374a6.93,6.93,0,0,1,1.83-.47q1-.3,2.1-.51a41.38,41.38,0,0,1,4.53-.94c1.46-.13,2.9-.35,4.36-.51a39.61,39.61,0,0,1,4.36.12,15.55,15.55,0,0,0,3.59-.51,35.66,35.66,0,0,1,4.71-.59c3.26-.32,6.47-1,9.75-.69.45.05.48-.6.1-.73-.83-.3-1.54-.77-2.35-1.11a9.57,9.57,0,0,0-2.69-.62c-2.16-.23-4.29-.73-6.46-.79-4.32-.14-8.67-.18-13,.1a21.52,21.52,0,0,0-5.14,1.16,19.58,19.58,0,0,0-4.71,2,5.06,5.06,0,0,0-1.33,1.57,5.81,5.81,0,0,0-.87,1.34c-.25.9.65,1,1.34,1.08v-.75h-.08a.38.38,0,0,0,0,.75h.08a.38.38,0,0,0,0-.75c-.77-.05-.51-.27-.18-.74a9.64,9.64,0,0,1,1.12-1.56,10.93,10.93,0,0,1,4.2-2.06,36.09,36.09,0,0,1,4.58-1.15c1.61-.26,3.26-.14,4.9-.27a35.27,35.27,0,0,1,5.34-.08c1.7.14,3.4,0,5.09.17s3.39.52,5.1.71,3.15,1.1,4.84,1.7l.1-.74c-3.46-.37-6.78.52-10.22.74a29.06,29.06,0,0,0-4.05.48,15.52,15.52,0,0,1-4.75.53,15.42,15.42,0,0,0-3.9,0c-1.61.24-3.23.31-4.84.54-1.44.21-2.9.69-4.34,1-.63.14-1.24.36-1.88.51a4.74,4.74,0,0,0-1.63.43c-.4.26,0,.91.38.65Z" transform="translate(-583.03 -254.84)"/><path d="M617.28,369.56c1.17.54,2.35,1.11,3.5,1.69a14.34,14.34,0,0,0,3.08,1.29,15.38,15.38,0,0,0,3.64.34c.67,0,1.33,0,2,.06a7.77,7.77,0,0,0,1.65.17.38.38,0,0,0,.26-.64,14.13,14.13,0,0,0-1.75-1.52,12.65,12.65,0,0,0-1.86-1.3,20.7,20.7,0,0,0-2.16-1.43,14.34,14.34,0,0,1-2.43-1.26,6.58,6.58,0,0,0-4.45-1.38,4.61,4.61,0,0,0-3.71,1.93.39.39,0,0,0,.13.52,2.52,2.52,0,0,0,.59.24,5,5,0,0,1,1,.6,4.81,4.81,0,0,0,1.38.85.37.37,0,0,0,.2-.72,5.33,5.33,0,0,1-1.39-.92c-.44-.31-1-.41-1.38-.7l.14.51c.76-1.32,2.62-1.66,4-1.59,1.6.08,2.88,1.25,4.24,1.93.62.31,1.27.58,1.87.91s1.18.92,1.83,1.29a10.75,10.75,0,0,1,1.65,1.21,11.44,11.44,0,0,1,1.58,1.36l.27-.64a7.85,7.85,0,0,1-1.52-.16,15.55,15.55,0,0,0-1.67-.07,11.38,11.38,0,0,1-7.06-1.66c-1.08-.51-2.15-1.05-3.24-1.56-.43-.21-.81.44-.38.65Z" transform="translate(-583.03 -254.84)"/><path d="M652.79,384.51a10.84,10.84,0,0,1,8.53-6.4,11.48,11.48,0,0,1,6,1c2.22.93,4.39,2,6.57,3.07.43.21.81-.44.38-.64-4.19-2-8.68-4.93-13.51-4.1a11.6,11.6,0,0,0-8.67,6.87c-.18.45.54.64.73.2Z" transform="translate(-583.03 -254.84)"/><path d="M621.63,379a5.14,5.14,0,0,0,1.32,6.11c2,1.73,4.87,1.86,7.28,1.13a.37.37,0,0,0-.2-.72c-2.11.63-4.69.61-6.46-.87a4.41,4.41,0,0,1-1.29-5.27c.23-.42-.42-.8-.65-.38Z" transform="translate(-583.03 -254.84)"/><path d="M654.38,387.16c1.32-3.14,3.93-6.16,7.39-6.86,4.08-.82,8,2.1,11,4.43a1.51,1.51,0,0,0,2-.54,1.53,1.53,0,0,0-.54-2.05c-3.85-3-8.48-5.88-13.56-4.67-4.42,1.06-7.52,4.88-9.2,8.89a1.51,1.51,0,0,0,1,1.85,1.53,1.53,0,0,0,1.84-1Z" transform="translate(-583.03 -254.84)"/><path d="M662.58,378.91a6,6,0,0,0-3,5.5,6.89,6.89,0,0,0,.77,2.91,4.19,4.19,0,0,0,3,2.08,7.51,7.51,0,0,0,3.79-.31,5.1,5.1,0,0,0,2.72-2.45,6.05,6.05,0,0,0-.76-6.54,5.44,5.44,0,0,0-6.6-1.19,1.51,1.51,0,0,0-.54,2,1.55,1.55,0,0,0,2.06.54l.13-.07c-.56.21-.13.06,0,0a3,3,0,0,1,.43-.12l.2,0c.16,0,.14,0-.08,0l.24,0a5.28,5.28,0,0,1,.56,0c.23,0-.34-.09.06,0l.28.08s.45.2.17.05l.2.11.3.19c.25.16-.18-.19,0,0s.35.27.39.4c-.06-.18-.12-.16,0,0a1.67,1.67,0,0,1,.18.28,1.69,1.69,0,0,1,.25.48s-.11-.32,0-.06c0,.1.07.2.1.31s.15.43.11.51l0-.19c0,.06,0,.13,0,.2v.22a2.71,2.71,0,0,1,0,.29v.06c0,.18,0,.16,0,0,.06.13-.12.56-.16.68s0,.15-.07.22c.09-.31,0-.07,0,0a3.25,3.25,0,0,1-.25.45c-.05.07-.28.33,0,.07l-.15.16c-.08.09-.16.16-.24.24s.23-.12-.06,0l-.24.14c-.07,0-.32.13-.07,0a5.39,5.39,0,0,1-.66.18l-.27.05c.34-.05-.12,0-.16,0-.21,0-.42,0-.64,0a2.52,2.52,0,0,1-.61,0c.38.1-.21-.07-.31-.09s-.36-.15-.15-.05-.13-.08-.14-.08l-.2-.13c.38.28-.23-.33,0,0a4,4,0,0,1-.28-.5c-.12-.21.09.32,0-.06l-.06-.17c0-.08-.21-.86-.2-.86s0,.34,0,.09,0-.3,0-.46a1.93,1.93,0,0,1,0-.24c0-.12,0-.38,0-.12a5.67,5.67,0,0,1,.21-.81l.05-.14c0,.08,0,.1,0,.05a1.42,1.42,0,0,1,.08-.18c.07-.12.13-.24.2-.35l.12-.18c.17-.27-.23.25,0,0s.29-.31.45-.46,0,0,0,0c.14-.09.28-.18.43-.26a1.51,1.51,0,0,0,.53-2.05A1.53,1.53,0,0,0,662.58,378.91Z" transform="translate(-583.03 -254.84)"/><path d="M626.71,380a7.82,7.82,0,0,1,4,5.33l.69-1.69a5.17,5.17,0,0,1-2.45.81,5.28,5.28,0,0,1-1.1,0c-.3,0-.38-.08-.49-.29a4.41,4.41,0,0,1-.27-2.36,2.31,2.31,0,0,1,1.15-1.84,1.51,1.51,0,0,0,0-2.59,9,9,0,0,0-6.62-1.36,5.19,5.19,0,0,0-3.94,4.05,1.54,1.54,0,0,0,1.05,1.84,1.51,1.51,0,0,0,1.84-1.05,2.33,2.33,0,0,1,2-2,6.28,6.28,0,0,1,4.12,1.1v-2.59a5.22,5.22,0,0,0-2.53,3.63,7.5,7.5,0,0,0,.58,4.67,3.86,3.86,0,0,0,3.81,1.78,8.56,8.56,0,0,0,4.34-1.26,1.59,1.59,0,0,0,.69-1.7,10.75,10.75,0,0,0-5.37-7.12,1.5,1.5,0,0,0-1.52,2.59Z" transform="translate(-583.03 -254.84)"/><path d="M620,382.82a6.76,6.76,0,0,0,4.78,4.67.37.37,0,0,0,.2-.72,6,6,0,0,1-4.26-4.15.37.37,0,0,0-.72.2Z" transform="translate(-583.03 -254.84)"/><path d="M619.17,379.24a.38.38,0,0,0,0-.75.38.38,0,0,0,0,.75Z" transform="translate(-583.03 -254.84)"/><path d="M619.32,378.8a4.53,4.53,0,0,1,2.88-2.25,6.67,6.67,0,0,1,4.2.63,9.72,9.72,0,0,1,5,4.9c.19.44.84.06.64-.38a10.41,10.41,0,0,0-5.9-5.42,6.76,6.76,0,0,0-4.43-.38,5.31,5.31,0,0,0-3.06,2.52c-.23.42.41.8.65.38Z" transform="translate(-583.03 -254.84)"/><path d="M715.49,379.18c2-1.32,6.22-3.6,7.87-.41.67,1.3.27,3.15-.08,4.49a20.32,20.32,0,0,1-1.54,3.89c-1.14,2.26-2.54,4.39-3.68,6.65a42.87,42.87,0,0,0-2.51,6.88c-.84,2.69-2,5.28-4.34,7a10,10,0,0,1-3.34,1.57,4.88,4.88,0,0,1-2.19.28c-1.23-.43-1.21-1.7-1-2.76.48-2.6,2.42-4.67,3.74-6.88a55,55,0,0,0,3.3-7.19,26.66,26.66,0,0,1,4.37-7.74c.85-1,2.12-2.36,3.39-2.73.26-.07.87-.22,1.08.16.11.2-.27,1.08-.33,1.36l-.66,2.7c-.12.47.61.67.72.2l.66-2.71a4.83,4.83,0,0,0,.37-2.18c-.28-.94-1.22-.65-1.88-.34a14.7,14.7,0,0,0-6.14,6.18c-1.76,3.05-2.8,6.44-4.31,9.61-1.41,2.95-3.9,5.48-4.85,8.62-.34,1.1-.59,2.7.11,3.71s2,.78,3.08.59a10.55,10.55,0,0,0,7.13-4.9c1.73-2.85,2.18-6.23,3.44-9.28s3.29-5.89,4.76-8.93c1.16-2.41,3-6.79,1-9.2-2.33-2.74-6.12-.8-8.49.73-.41.26,0,.91.38.65Z" transform="translate(-583.03 -254.84)"/><path d="M711.81,396.58a2.17,2.17,0,0,0,2.19.35,3,3,0,0,0,1.75-1.73c.79-1.88,0-4.11,1.06-5.9a.38.38,0,0,0-.65-.38c-.9,1.57-.52,3.37-.84,5.07a2.87,2.87,0,0,1-1.09,2,1.59,1.59,0,0,1-1.89.07c-.36-.31-.89.22-.53.53Z" transform="translate(-583.03 -254.84)"/><path d="M688.92,340.23a40.21,40.21,0,0,0,8.56,14.62c3.53,3.77,8.78,6.47,14,4.73.45-.15.26-.87-.2-.72-5.24,1.74-10.35-1.23-13.75-5.09A40,40,0,0,1,689.65,340c-.15-.46-.88-.26-.73.2Z" transform="translate(-583.03 -254.84)"/><path d="M693.26,339.32A58.63,58.63,0,0,0,702,351c3,3.07,7.14,6,11.61,4.42.45-.17.26-.89-.2-.73-4.61,1.67-8.66-1.82-11.58-5a58,58,0,0,1-7.94-10.82.38.38,0,0,0-.65.38Z" transform="translate(-583.03 -254.84)"/><path d="M692.19,333.07c5.92,7.07,13.61,13.73,23.36,13.73a.38.38,0,0,0,0-.75c-9.55,0-17-6.59-22.83-13.51-.31-.37-.83.16-.53.53Z" transform="translate(-583.03 -254.84)"/><path d="M704.09,361.34a8.94,8.94,0,0,0,8.77.47c.43-.21,0-.86-.38-.65a8.15,8.15,0,0,1-8-.47c-.41-.26-.79.38-.38.65Z" transform="translate(-583.03 -254.84)"/><path d="M704.09,365.53a8.49,8.49,0,0,0,9.5-.41c.38-.29,0-.94-.37-.65a7.77,7.77,0,0,1-8.76.41c-.4-.25-.78.39-.37.65Z" transform="translate(-583.03 -254.84)"/><path d="M706.14,372.67c2.28,0,5.22-.17,6.47-2.42.23-.42-.42-.8-.65-.38-1.1,2-3.82,2.07-5.82,2.05a.38.38,0,0,0,0,.75Z" transform="translate(-583.03 -254.84)"/><path d="M707.69,392.86c0-3.94,2.75-7,4.7-10.17a41.81,41.81,0,0,0,4.43-10.49c1.12-3.88,1.91-7.86,2.7-11.82a81.81,81.81,0,0,0,1.67-11.76,31.56,31.56,0,0,0-1.88-13.17c-.17-.44-.9-.25-.72.2,3.09,7.89,1.82,16.46.21,24.53-1.54,7.69-3,15.76-7.28,22.48-2,3.17-4.6,6.25-4.58,10.2a.38.38,0,0,0,.75,0Z" transform="translate(-583.03 -254.84)"/><path d="M704.89,374.15c4.16,5.52-1.62,13.2,2.76,18.74.3.38.83-.15.53-.53-2.18-2.75-1.57-6.53-1.21-9.76.34-3,.47-6.29-1.43-8.82-.29-.39-.94,0-.65.37Z" transform="translate(-583.03 -254.84)"/><path d="M703.52,377.86c.46,4.3-.47,8.63.13,12.92a13.59,13.59,0,0,0,1.62,5c.29.49.76,1.45,1.36,1.59a.52.52,0,0,0,.67-.57.39.39,0,0,0-.19-.32l-.1-.05c-.43-.21-.81.44-.37.65a.64.64,0,0,0-.22-.92,5.5,5.5,0,0,1-.34-.5c-.16-.25-.31-.52-.45-.78a11.85,11.85,0,0,1-.83-2.17,18.64,18.64,0,0,1-.6-4.46c-.09-3.46.44-6.91.07-10.36,0-.48-.8-.48-.75,0Z" transform="translate(-583.03 -254.84)"/><path d="M677.64,325.46a10.69,10.69,0,0,1,7.41,4.75c1.61,2.42,2.59,5.23,4.56,7.41.32.36.85-.17.53-.53-2.1-2.33-3-5.4-4.89-7.9a11.28,11.28,0,0,0-7.41-4.45c-.47-.07-.67.65-.2.72Z" transform="translate(-583.03 -254.84)"/><path d="M705.3,313.63a10.9,10.9,0,0,0,8.87,10.5c.47.07.68-.65.2-.73a10.14,10.14,0,0,1-8.32-9.77.38.38,0,0,0-.75,0Z" transform="translate(-583.03 -254.84)"/><path d="M698.4,287.66a17.14,17.14,0,0,1,15.27,28c-.3.37.22.9.53.53a17.88,17.88,0,0,0-15.8-29.26c-.47,0-.48.8,0,.75Z" transform="translate(-583.03 -254.84)"/><path d="M687.29,285.63a18,18,0,0,1,32.44,7.12c.09.47.82.27.72-.2a18.78,18.78,0,0,0-33.8-7.3c-.29.39.36.77.64.38Z" transform="translate(-583.03 -254.84)"/><path d="M683.94,284.58A15,15,0,0,1,709.65,276c.33.34.86-.19.53-.53a15.7,15.7,0,0,0-27,9.15c-.06.48.69.48.75,0Z" transform="translate(-583.03 -254.84)"/><path d="M682.78,281.62c-2.65-3.64-5.54-7.51-10-9-3.6-1.18-8-.15-9.83,3.4-.23.43.42.81.64.38,1.81-3.5,6.16-4.18,9.57-2.85,3.94,1.55,6.55,5.11,9,8.42.28.38.93,0,.65-.38Z" transform="translate(-583.03 -254.84)"/><path d="M683.08,285c-4.58-2.61-11.14-6.41-16.45-3.57-4.52,2.41-6.83,8.25-6.93,13.12a16.76,16.76,0,0,0,2,8.29c.23.42.88,0,.65-.38a16.36,16.36,0,0,1,1.22-17.21,10.29,10.29,0,0,1,3.76-3.33,9.42,9.42,0,0,1,5.63-.45c3.52.63,6.69,2.43,9.75,4.17.42.24.8-.41.38-.64Z" transform="translate(-583.03 -254.84)"/><path d="M676,286.27A11,11,0,0,0,665.16,292c-2.49,4.45-1.8,10,.46,14.37.22.43.86.05.64-.38-2.08-4.06-2.78-9.19-.59-13.36,1.91-3.63,6-6.22,10.15-5.63.47.07.67-.65.19-.72Z" transform="translate(-583.03 -254.84)"/><path d="M618.29,344.9c-5.47,13-1.92,27.38-2.12,41-.1,7.56-1.09,15.13-.32,22.69.72,7.05,3.34,13.57,6.42,19.9,3.26,6.69,6.68,13.32,10,20,2.47,4.91,5.44,10.38,11.43,11.24,3.32.48,6.76-.29,9.94-1.19a58.08,58.08,0,0,0,9.28-3.61,153.87,153.87,0,0,0,17.86-10.73c6.22-4.12,11.88-8.61,16-14.94,4-6.12,6.51-13.05,8.77-20,.15-.46-.57-.66-.72-.2a91.47,91.47,0,0,1-7.39,17.66,45.15,45.15,0,0,1-13.27,14.24,190.26,190.26,0,0,1-16.92,10.82c-5.68,3.2-11.82,6-18.31,7-3.48.56-7.1.34-10-2a21.36,21.36,0,0,1-5.15-7c-3.25-6.23-6.34-12.56-9.49-18.84s-6.14-12.54-7.34-19.42c-1.25-7.21-.52-14.55-.2-21.81.33-7.62-.4-15.15-.72-22.76-.31-7.41,0-14.94,2.92-21.88.19-.44-.54-.64-.72-.2Z" transform="translate(-583.03 -254.84)"/><path d="M702.83,415.79a.38.38,0,0,0,0-.75.38.38,0,0,0,0,.75Z" transform="translate(-583.03 -254.84)"/><path d="M648.62,460.69l4.89,9.55a37,37,0,0,1,2.26,4.6c.65,1.88.15,3.82-.35,5.67a.38.38,0,0,0,.73.19,12,12,0,0,0,.61-5,17.2,17.2,0,0,0-2-4.74l-5.45-10.62c-.22-.43-.86-.05-.64.38Z" transform="translate(-583.03 -254.84)"/><path d="M666.29,469.56c-.09,4.36-2,8.35-3.93,12.17-.21.43.44.81.65.38,2-3.95,3.94-8.05,4-12.55a.38.38,0,0,0-.75,0Z" transform="translate(-583.03 -254.84)"/><path d="M630.5,431.2c4.24,2.87,9.39,2.62,14.25,2,5.26-.71,10.44-1.88,15.69-2.68.47-.07.27-.79-.2-.72-4.89.75-9.72,1.82-14.61,2.53s-10.36,1.23-14.75-1.74c-.4-.27-.78.38-.38.65Z" transform="translate(-583.03 -254.84)"/><path d="M630.15,431a8.92,8.92,0,0,0,3.67,7.26,12.1,12.1,0,0,0,8.94,2.09,24.6,24.6,0,0,0,9.71-3.86c3.38-2.12,6.63-4.47,9.93-6.73.39-.27,0-.92-.38-.65-2.81,1.92-5.59,3.88-8.43,5.76a29.81,29.81,0,0,1-8.82,4.33c-3.16.81-6.73.79-9.6-.92A8.37,8.37,0,0,1,630.9,431a.38.38,0,0,0-.75,0Z" transform="translate(-583.03 -254.84)"/><path d="M631.4,430.93a7.91,7.91,0,0,1,5.9-.61c2,.49,3.73.12,5.75,0a31,31,0,0,1,6.38.58,40.74,40.74,0,0,0,6,.37.38.38,0,0,0,0-.75,43,43,0,0,1-7-.52,23.82,23.82,0,0,0-6.36-.34,14,14,0,0,1-3.41.19c-.92-.12-1.79-.45-2.71-.56a8.31,8.31,0,0,0-5,1c-.42.23,0,.87.38.65Z" transform="translate(-583.03 -254.84)"/><path d="M651.7,478.14c1.28,5.71,5.73,10,11,12.3,6.27,2.69,13.23,2.17,19.61.16a72.91,72.91,0,0,0,20-10.24c5.58-4,9.92-9,14.16-14.28,4.47-5.61,9.13-11.38,15.81-14.42.44-.2.06-.84-.38-.64-11.35,5.15-16.69,17.5-25.77,25.39a73.28,73.28,0,0,1-18.18,11.24c-6.6,3-14.18,5-21.39,3.28-6.51-1.58-12.59-6.21-14.09-13-.11-.47-.83-.27-.73.2Z" transform="translate(-583.03 -254.84)"/><path d="M667,379.52a10.69,10.69,0,0,0,3.06-1.11c.42-.23.05-.88-.38-.65a9.54,9.54,0,0,1-2.88,1,.38.38,0,0,0-.26.46.39.39,0,0,0,.46.27Z" transform="translate(-583.03 -254.84)"/><path d="M668.51,380.14a7.42,7.42,0,0,0,2.78-.67.37.37,0,0,0,.13-.51.39.39,0,0,0-.51-.14,6.25,6.25,0,0,1-2.4.57.38.38,0,0,0-.37.37.38.38,0,0,0,.37.38Z" transform="translate(-583.03 -254.84)"/><path d="M669.74,381.05a4.62,4.62,0,0,0,3.06-.34.37.37,0,1,0-.38-.64,3.86,3.86,0,0,1-2.48.26.37.37,0,0,0-.2.72Z" transform="translate(-583.03 -254.84)"/><path d="M671.29,382.07a4.89,4.89,0,0,0,2.21-.33.37.37,0,1,0-.2-.72,5,5,0,0,1-1,.28h-.18l-.27,0a4.87,4.87,0,0,1-.54,0,.39.39,0,0,0-.38.38.38.38,0,0,0,.38.37Z" transform="translate(-583.03 -254.84)"/><path d="M672.32,383a7.38,7.38,0,0,0,2.34.2.38.38,0,0,0,.37-.37.38.38,0,0,0-.37-.38,6.38,6.38,0,0,1-2.14-.17.37.37,0,0,0-.2.72Z" transform="translate(-583.03 -254.84)"/><path d="M673.48,383.81a2.77,2.77,0,0,0,1.44.32.39.39,0,0,0,.38-.38.38.38,0,0,0-.38-.37,2.47,2.47,0,0,1-.47,0h.1a2,2,0,0,1-.6-.16l.09,0-.18-.09a.39.39,0,0,0-.52.14.38.38,0,0,0,.14.51Z" transform="translate(-583.03 -254.84)"/><path d="M618.77,380a2.27,2.27,0,0,1-.3.32l-.09.07h0l0,0-.19.12-.19.11-.1,0h0l-.06,0a3,3,0,0,1-.43.12.37.37,0,0,0-.26.46.38.38,0,0,0,.46.26,2.87,2.87,0,0,0,1.69-1,.41.41,0,0,0,.11-.26.4.4,0,0,0-.11-.27.39.39,0,0,0-.53,0Z" transform="translate(-583.03 -254.84)"/><path d="M619.11,379.14l-.09,0,0,0,0,0-.16.07-.32.1a4.69,4.69,0,0,1-.65.14l.1,0h0a.39.39,0,0,0-.27.11.41.41,0,0,0-.11.26.44.44,0,0,0,.11.27.39.39,0,0,0,.27.11,5,5,0,0,0,.77-.16,4.7,4.7,0,0,0,.74-.28.37.37,0,0,0,.17-.22.37.37,0,0,0,0-.29.4.4,0,0,0-.52-.14Z" transform="translate(-583.03 -254.84)"/><path d="M619.63,378.28a3.18,3.18,0,0,1-.69,0h-.09s-.11,0,0,0l-.17,0-.34-.08a.37.37,0,0,0-.46.26.38.38,0,0,0,.26.46,3.75,3.75,0,0,0,1.49.13.36.36,0,0,0,.26-.11.33.33,0,0,0,.11-.26.38.38,0,0,0-.37-.38Z" transform="translate(-583.03 -254.84)"/><path d="M620.81,377.75l-1.33-1.18a.39.39,0,0,0-.53,0,.38.38,0,0,0,0,.53l1.33,1.18a.39.39,0,0,0,.53,0,.38.38,0,0,0,0-.53Z" transform="translate(-583.03 -254.84)"/><path d="M621.81,377.15a7.85,7.85,0,0,1-1-1.11l.06.07-.07-.08a.39.39,0,0,0-.22-.18.42.42,0,0,0-.29,0,.36.36,0,0,0-.17.23.38.38,0,0,0,0,.28,8,8,0,0,0,1.18,1.28.41.41,0,0,0,.26.11.4.4,0,0,0,.27-.11.38.38,0,0,0,0-.53Z" transform="translate(-583.03 -254.84)"/><path d="M631,383.29a2.64,2.64,0,0,1,0,.29s0,.08,0,.12v.08c0,.18-.08.35-.13.52a3.08,3.08,0,0,1-.18.44,3.43,3.43,0,0,1-.28.49.39.39,0,0,0,.14.51.37.37,0,0,0,.51-.14,4.32,4.32,0,0,0,.73-2.31.38.38,0,1,0-.75,0Z" transform="translate(-583.03 -254.84)"/><path d="M656.83,388.37a14.74,14.74,0,0,0,14.88-2.45c.37-.31-.16-.84-.53-.53A14,14,0,0,1,657,387.65c-.45-.18-.64.54-.2.72Z" transform="translate(-583.03 -254.84)"/><path d="M673.13,385.74a17.52,17.52,0,0,1-7.1,3.94.37.37,0,0,0,.2.72,18.31,18.31,0,0,0,7.43-4.13c.36-.33-.18-.85-.53-.53Z" transform="translate(-583.03 -254.84)"/><path d="M700.42,420.07c.94,7.78,2.82,15.36,7.83,21.58,4.65,5.77,11,9.94,17.08,14,.4.27.78-.38.38-.65-5.87-3.86-11.86-7.83-16.42-13.25-5.2-6.18-7.17-13.8-8.12-21.66-.06-.48-.81-.48-.75,0Z" transform="translate(-583.03 -254.84)"/><path d="M647.33,417.94a6.79,6.79,0,0,0,4.73-2.73.39.39,0,0,0-.13-.52.4.4,0,0,0-.52.14,5.94,5.94,0,0,1-4.08,2.36.38.38,0,0,0-.37.38.38.38,0,0,0,.37.37Z" transform="translate(-583.03 -254.84)"/><path d="M640.47,415.34a11.07,11.07,0,0,1,6.41,1c.43.21.81-.43.38-.65a11.88,11.88,0,0,0-7-1.07c-.48.07-.27.79.2.72Z" transform="translate(-583.03 -254.84)"/><path d="M635,387.72q-1.15,5-2.57,9.94c-1,3.28-2.2,6.49-3.1,9.79-.67,2.42-.49,5,1.43,6.79s5.07,1.59,7.28,3.15c.4.27.77-.38.38-.65-2-1.41-4.66-1.22-6.64-2.63-3-2.18-2-5.77-1-8.74a178.62,178.62,0,0,0,4.93-17.45c.11-.47-.61-.67-.72-.2Z" transform="translate(-583.03 -254.84)"/><path d="M637.64,419.77l.57,6.59c.06.68,0,1.72.78,2,.59.24,1.42-.28,1.17-.94-.16-.45-.89-.26-.72.19,0,.06-.13.07-.2,0s-.13-.21-.16-.3a4.84,4.84,0,0,1-.12-.94l-.18-2.19-.39-4.48c0-.48-.79-.49-.75,0Z" transform="translate(-583.03 -254.84)"/><path d="M632.35,374.57a24.36,24.36,0,0,1,2.84,10.59.38.38,0,0,0,.75,0,25.22,25.22,0,0,0-2.94-11c-.23-.42-.87,0-.65.38Z" transform="translate(-583.03 -254.84)"/><path d="M651.13,383.15c1.73-5.16,7.23-7.28,12.16-8,.48-.07.27-.79-.2-.72-5.22.79-10.87,3.13-12.68,8.55-.16.46.57.65.72.2Z" transform="translate(-583.03 -254.84)"/><path d="M669.15,325.72c6.47-6.25,13.22-12.69,21.83-15.83.45-.16.25-.89-.2-.72-8.74,3.19-15.58,9.67-22.16,16-.35.33.18.86.53.53Z" transform="translate(-583.03 -254.84)"/><path d="M668.66,323.83a21.42,21.42,0,0,1,11.81-12.65c.44-.19.06-.84-.38-.65a22.15,22.15,0,0,0-12.15,13.1c-.16.46.57.66.72.2Z" transform="translate(-583.03 -254.84)"/><path d="M666,322.23a18.69,18.69,0,0,1,6.85-14.52c.38-.3-.16-.83-.53-.53a19.43,19.43,0,0,0-7.07,15.05.38.38,0,0,0,.75,0Z" transform="translate(-583.03 -254.84)"/><path d="M660.49,322.88c-2.24-4.64,1.73-9.09,4.73-12.19a.38.38,0,0,0-.53-.53,22,22,0,0,0-4.73,6.22,8.23,8.23,0,0,0-.12,6.88c.21.44.86.06.65-.38Z" transform="translate(-583.03 -254.84)"/><path d="M655,321.39a10.2,10.2,0,0,1,3.59-11.63c.39-.28,0-.93-.38-.65a11,11,0,0,0-3.93,12.47c.16.45.89.26.72-.19Z" transform="translate(-583.03 -254.84)"/><path d="M649.62,321.81c-1.44.16-1.69-1.53-1.59-2.59a15.57,15.57,0,0,1,.68-3.17,17.89,17.89,0,0,1,3.13-5.89c.3-.37-.23-.91-.53-.53a18.87,18.87,0,0,0-3.61,7.23,8.91,8.91,0,0,0-.36,3.8,2.21,2.21,0,0,0,2.28,1.9c.48-.05.48-.8,0-.75Z" transform="translate(-583.03 -254.84)"/><path d="M643.51,323.35a4.62,4.62,0,0,1-2.18-4.44,9.85,9.85,0,0,1,2.67-5.49c.3-.37-.22-.9-.53-.53-1.47,1.75-2.82,3.82-2.9,6.17a5.36,5.36,0,0,0,2.56,4.94c.42.23.8-.42.38-.65Z" transform="translate(-583.03 -254.84)"/><path d="M639.66,326.34c-4,.59-6.27-3.88-5.43-7.3.88-3.58,3.83-6,6.78-7.91,3.12-2,6.31-3.91,9.47-5.85.52-.32,2.15-1.15,1.45-2a.71.71,0,0,0-1.21.34.38.38,0,0,0,.17.42l.12.08c.4.28.77-.37.38-.64l-.12-.08.17.42c0,.21-1.29.8-1.53.95l-1.34.82L646.28,307l-4.65,2.86c-2.61,1.64-5.29,3.46-6.92,6.15-1.37,2.27-2,5.21-.81,7.69a5.81,5.81,0,0,0,6,3.39c.48-.07.28-.8-.2-.73Z" transform="translate(-583.03 -254.84)"/><path d="M633.43,324.06a94.5,94.5,0,0,0-15.34,20.23.38.38,0,0,0,.65.38A93.65,93.65,0,0,1,634,324.59a.38.38,0,0,0-.53-.53Z" transform="translate(-583.03 -254.84)"/><path d="M622.07,336.78a35.17,35.17,0,0,1,19.58-28.25c.44-.21.06-.85-.38-.65a35.91,35.91,0,0,0-19.95,28.9c0,.48.71.48.75,0Z" transform="translate(-583.03 -254.84)"/><path d="M683.94,322.71a28.24,28.24,0,0,0,18.11-14.5c.21-.43-.43-.81-.65-.38A27.44,27.44,0,0,1,683.74,322a.38.38,0,0,0,.2.73Z" transform="translate(-583.03 -254.84)"/><path d="M701.77,311.11a51.71,51.71,0,0,1-5.08,15.95c-.22.43.43.81.64.38a52.29,52.29,0,0,0,5.16-16.13c.07-.47-.65-.67-.72-.2Z" transform="translate(-583.03 -254.84)"/><path d="M697.85,332.93a13.92,13.92,0,0,0,6.61-11.88.38.38,0,0,0-.75,0,13.18,13.18,0,0,1-6.24,11.24.37.37,0,0,0,.38.64Z" transform="translate(-583.03 -254.84)"/><path d="M700.31,333.28a13,13,0,0,0,8.85-4.54c.31-.37-.22-.9-.53-.53a12.25,12.25,0,0,1-8.32,4.32c-.48,0-.49.79,0,.75Z" transform="translate(-583.03 -254.84)"/><path d="M706.52,335.41a15,15,0,0,0,8.07-.06.37.37,0,0,0-.2-.72,14.17,14.17,0,0,1-7.67.06.37.37,0,0,0-.2.72Z" transform="translate(-583.03 -254.84)"/><path d="M706,337.92a17.19,17.19,0,0,0,10.83,2.32c.47-.06.48-.81,0-.75a16.61,16.61,0,0,1-10.45-2.21.37.37,0,0,0-.38.64Z" transform="translate(-583.03 -254.84)"/><path d="M673.67,302.37a39.91,39.91,0,0,1,24.91,4.81.37.37,0,0,0,.37-.65,40.74,40.74,0,0,0-25.48-4.89c-.47.07-.27.79.2.73Z" transform="translate(-583.03 -254.84)"/><path d="M670.16,302.48a8.29,8.29,0,0,1,3.17-7.4c2.29-1.94,5.33-2.74,8.23-3.18,4.54-.69,11.17-1.72,14.42,2.41.3.37.83-.16.53-.53-3.57-4.54-11.06-3.35-16-2.47-3.12.57-6.28,1.66-8.53,4a8.71,8.71,0,0,0-2.54,7.36c.08.48.8.27.72-.2Z" transform="translate(-583.03 -254.84)"/><path d="M685.13,297.34a24.55,24.55,0,0,1,17.51,2.75c2.48,1.46,5.18,3.52,5.83,6.5a5.38,5.38,0,0,1-.92,4.48,7.81,7.81,0,0,0-1.8,3.22c-.07.48.65.68.73.2.26-1.63,1.64-2.63,2.34-4.06a6.11,6.11,0,0,0,.38-4c-.67-2.92-3.1-5-5.53-6.54a25.27,25.27,0,0,0-18.74-3.23c-.47.1-.27.82.2.72Z" transform="translate(-583.03 -254.84)"/><path d="M710.28,315.64c3.25,4.36,9,4.55,14,4.51a.38.38,0,0,0,0-.75c-4.64,0-10.27,0-13.34-4.14-.28-.38-.93,0-.64.38Z" transform="translate(-583.03 -254.84)"/><path d="M710,321.28a25.86,25.86,0,0,0,15.84,4.27c.48,0,.49-.78,0-.75a25.26,25.26,0,0,1-15.47-4.16c-.4-.27-.77.38-.37.64Z" transform="translate(-583.03 -254.84)"/><path d="M701.87,293.51a12.92,12.92,0,0,1,10.77,18.76c-.21.43.43.81.65.38a13.68,13.68,0,0,0-11.42-19.89c-.48,0-.48.72,0,.75Z" transform="translate(-583.03 -254.84)"/><path d="M695.81,299.34a13,13,0,0,1,7.25,11.5.38.38,0,0,0,.75,0,13.69,13.69,0,0,0-7.62-12.15c-.43-.2-.81.44-.38.65Z" transform="translate(-583.03 -254.84)"/><path d="M662,426.52l2.25,2.45a.37.37,0,1,0,.53-.53L662.5,426a.37.37,0,0,0-.53.53Z" transform="translate(-583.03 -254.84)"/><path class="cls-2" d="M689.18,373.1a5.83,5.83,0,0,0-4.71,6.18c.52,6.13-1.34,13.79-4.08,16-3.52,2.86-13.77,16.74-14.78,19-2.9,6.41,1,19.69,10.1,16.82,5.76-1.82,18.07-5.32,21.17-10.92s5.85-19.83,6-24.88-1.76-19.15-4.42-21.78C697,372.1,692.77,372.41,689.18,373.1Z" transform="translate(-583.03 -254.84)"/><path class="cls-2" d="M638.54,336.56c6.38,1.66,11.32-1.66,15.85,0s17.16-2.32,22.17,2.27c10,9.12,11.18,22.89-3,21.9-5.16-.36-14.79-.18-20.08,1.22S644,365,642.49,368s-3.87,11.72-9.73,3c-.15-.22-1.37-4.76-5.25-5.73s-4.51-8.54-3.28-11.75,1.91-10.95,5.52-13.16A48.46,48.46,0,0,1,638.54,336.56Z" transform="translate(-583.03 -254.84)"/><path d="M731.49,462.71c3.73.47,5.39-3.19,8-5,.78-.56,1.34-.87,1.78.58.06.17,0,.36.08.53a1.07,1.07,0,0,0,.84.6c1.13.18,1.6-1,1.83-1.85l-.73-.2a39.67,39.67,0,0,1-1.48,6.06,4.63,4.63,0,0,1-1,1.73c-.56.51-1.45.72-1.25-.4a4.11,4.11,0,0,1,2.15-2.46c1.52-.91,3.13-1.47,4.23-2.93,1-1.28,1.49-2.83,2.39-4.15.24-.35-.33-.79-.59-.45a5.87,5.87,0,0,0-1.32,3.48c0,.88.06,2.16,1.16,2.27s2.39-1.1,3.18-1.81c1.49-1.33,2.94-2.91,5.09-2.9a.38.38,0,0,0,0-.75c-2.05,0-3.58,1.25-5,2.57-.69.63-2.29,2.44-3.23,1.89-1.24-.73,0-3.4.66-4.22l-.59-.46c-.69,1-1.15,2.12-1.75,3.17a7.24,7.24,0,0,1-3.16,2.89c-1.65.86-4.19,2.13-4,4.39.16,1.92,2.05,1.09,2.82.08,1.6-2.08,1.89-5.31,2.39-7.8.09-.47-.61-.67-.73-.2a2.75,2.75,0,0,1-.16.56c-.09.49-.44.52-1.07.11-.06-.12,0-.35,0-.49a1.25,1.25,0,0,0-.45-.78,2.06,2.06,0,0,0-2.56.31c-2.4,1.77-4.08,5.36-7.56,4.92-.47-.06-.47.69,0,.75Z" transform="translate(-583.03 -254.84)"/><path d="M745.76,457a3.38,3.38,0,0,0,1.94.4.38.38,0,1,0,0-.75,3,3,0,0,1-.43,0l-.21,0h0l-.11,0a1.91,1.91,0,0,1-.41-.11l-.1,0h0l0,0-.21-.1a.38.38,0,0,0-.51.14.38.38,0,0,0,.13.51Z" transform="translate(-583.03 -254.84)"/><path d="M751.84,459.84a.38.38,0,0,0,0-.75.38.38,0,0,0,0,.75Z" transform="translate(-583.03 -254.84)"/></svg>