<svg id="Layer_1" data-name="Layer 1" xmlns="http://www.w3.org/2000/svg" viewBox="0 0 130.14 141.43"><defs><style>.cls-1{fill:#fabea7;opacity:0.49;}</style></defs><path class="cls-1" d="M618.77,394.4c7.1-33.14,12.42-40,17.85-45.06,6.26-5.8,37.77-27,82.91-26.28,19.28.29,1.94,18.3,16.59,25.45,16.72,8.16,9.22,31.51,4.17,52-4.41,17.88,11.91,55.62,2.18,54-37.93-6.36-28.33-10.24-68.09-25.78-36.38-14.21-49.86,10.82-52,4.18C618.63,421.12,612.94,421.61,618.77,394.4Z" transform="translate(-616.27 -315.92)"/><path d="M655.17,369.73a120.38,120.38,0,0,0-2,12.66c-.26,2.25-.47,4.51-.66,6.76a41.68,41.68,0,0,0-.3,6.31c.2,3.28,1.47,6.66,4.51,8.3a27.09,27.09,0,0,0,5.36,1.82l6.7,1.94a.75.75,0,0,0,.4-1.45l-5.74-1.66a39.08,39.08,0,0,1-5.42-1.68c-3.59-1.61-4.44-5.53-4.34-9.12.11-3.82.58-7.67,1-11.47a116.41,116.41,0,0,1,2-12c.21-.94-1.24-1.34-1.45-.4Z" transform="translate(-616.27 -315.92)"/><path d="M696.28,410.29c3.47-.11,7.16-.32,10.29-2,3.71-2,4.84-5.67,5.8-9.49A170.21,170.21,0,0,0,717,370.37c.07-1-1.43-1-1.5,0a167.91,167.91,0,0,1-4.08,26.18c-.89,3.72-1.55,8.08-5.12,10.21-3,1.77-6.63,1.93-10,2a.75.75,0,0,0,0,1.5Z" transform="translate(-616.27 -315.92)"/><path d="M658.38,404.79c2.37,1.67,4.87,3.44,6.27,6a15.9,15.9,0,0,1,1.4,4.63c.33,1.81.59,3.64.77,5.47.1.95,1.6,1,1.5,0-.19-1.91-.45-3.81-.8-5.71a17.17,17.17,0,0,0-1.57-5.15c-1.53-2.84-4.24-4.77-6.81-6.59-.79-.56-1.54.74-.76,1.3Z" transform="translate(-616.27 -315.92)"/><path d="M703.82,408.71a1,1,0,0,0-1.41-.3,3.85,3.85,0,0,0-1,1.49c-.67,1.22-1.3,2.47-1.93,3.71a46.29,46.29,0,0,1-4.22,7.15c-.59.77.72,1.52,1.29.76a40.58,40.58,0,0,0,3.59-5.92c.53-1,1-2,1.56-3.05.26-.51.53-1,.8-1.51l.42-.75.21-.37.09-.17c.09-.13,0-.14-.26,0l-.44-.34,0,.09a.75.75,0,0,0,1.3-.76Z" transform="translate(-616.27 -315.92)"/><path d="M657.11,403.78a33.25,33.25,0,0,1-5.63,27.65c-.58.78.72,1.53,1.3.76a34.74,34.74,0,0,0,5.78-28.81c-.23-.94-1.68-.54-1.45.4Z" transform="translate(-616.27 -315.92)"/><path d="M704.62,408.18l-7,25.15-3.45,12.46c-1,3.59-2,7.42-.62,11.06.34.89,1.79.51,1.45-.4-1.41-3.79-.08-7.76,1-11.46l3.38-12.22,6.7-24.19a.75.75,0,0,0-1.45-.4Z" transform="translate(-616.27 -315.92)"/><path d="M695.67,441.37c2.3,5.07,5,10.6,10.33,13,.87.4,1.63-.89.75-1.29-5.12-2.31-7.59-7.64-9.78-12.47-.4-.88-1.69-.12-1.3.75Z" transform="translate(-616.27 -315.92)"/><path d="M657,421.34c-2.67,1.57-3.42,4.92-5.57,7a11.44,11.44,0,0,1-3.83,2.48,12.59,12.59,0,0,1-2.18.61,2.53,2.53,0,0,0-1.73,1c-.53.81.77,1.57,1.3.76.28-.43,1.32-.43,1.78-.55a13.59,13.59,0,0,0,2.05-.75,12.7,12.7,0,0,0,3.67-2.52,15.6,15.6,0,0,0,2.56-3.49,8.37,8.37,0,0,1,2.71-3.29.75.75,0,0,0-.76-1.3Z" transform="translate(-616.27 -315.92)"/><path d="M668.78,399.51a17.14,17.14,0,0,0,26.37,3.72c.71-.65-.35-1.7-1.07-1.06a15.63,15.63,0,0,1-24-3.42c-.5-.82-1.8-.06-1.29.76Z" transform="translate(-616.27 -315.92)"/><path d="M671.07,385.32a15.05,15.05,0,0,0,6,2c2.64.27,5.23.1,7.85.64,4.62.95,9.36,2.63,14,1a.76.76,0,0,0,.18-1.37A29.81,29.81,0,0,0,685,382a29.1,29.1,0,0,0-7.46.07c-2.8.38-6,2-8.81,1.07l.18,1.37c2.63-1.47,5.24-3,7.89-4.4A6.54,6.54,0,0,1,681,379c1.28.23,2.4.91,3.72,1a26.46,26.46,0,0,1,4.17.25,8.45,8.45,0,0,1,3.12,1.61,24,24,0,0,1,4.7,5.54c.54.8,1.84.05,1.3-.75a25.25,25.25,0,0,0-5.08-6c-2.26-1.77-4.48-2.11-7.27-2.15-1.64,0-2.89-.79-4.44-1.06a6.58,6.58,0,0,0-3.78.61c-3.2,1.38-6.22,3.37-9.26,5.06a.76.76,0,0,0,.18,1.37c2.56.9,5.1-.2,7.61-.73a27.59,27.59,0,0,1,7.85-.47,28.38,28.38,0,0,1,14.59,5.48l.18-1.37c-4.56,1.64-9.17-.18-13.69-1.05a44.82,44.82,0,0,0-6.65-.52,13.65,13.65,0,0,1-6.41-1.89.75.75,0,0,0-.76,1.3Z" transform="translate(-616.27 -315.92)"/><path d="M680.27,374.72a8.16,8.16,0,0,0,2.34-2,5,5,0,0,0,1.38-3.05,1.72,1.72,0,0,0-2.52-1.55,3.94,3.94,0,0,0-1.18,1.19,6.32,6.32,0,0,0-.72,1.36,6.26,6.26,0,0,0-.29,3.48.77.77,0,0,0,.93.52.76.76,0,0,0,.52-.92,4.77,4.77,0,0,1,1.08-4,2.47,2.47,0,0,1,.35-.33.39.39,0,0,1,.11-.06h0c.12,0-.09,0,0,0s-.06,0,0,0-.08-.06,0,0h0l.08.08c.07.09,0-.08,0,0a.41.41,0,0,1,.05.09s0-.08,0,0a.36.36,0,0,1,0,.21,4.2,4.2,0,0,1-1,1.93,7.13,7.13,0,0,1-2,1.7.75.75,0,0,0-.27,1,.74.74,0,0,0,1,.27Z" transform="translate(-616.27 -315.92)"/><path d="M686.84,369.32a3.08,3.08,0,0,0-1.38,1.68,2.4,2.4,0,0,0,.64,2.11,4.9,4.9,0,0,0,1.65,1.11c.28.13.57.26.84.42a3.17,3.17,0,0,1,.36.23c-.11-.08,0,.05.07.07s.13.13.2.2a.74.74,0,0,0,.9.12.77.77,0,0,0,.35-.84,8.27,8.27,0,0,0-3-5.07.75.75,0,0,0-1.06,0,.76.76,0,0,0,0,1.06,7.78,7.78,0,0,1,1,.92l.21.26,0,.06.09.12c.13.19.26.39.38.6s.22.39.32.59l.06.14a.53.53,0,1,0,0,.06l.12.31a8,8,0,0,1,.34,1.34l1.26-.73a4.31,4.31,0,0,0-1.38-1l-.73-.34a4.94,4.94,0,0,1-.67-.4c0,.05-.09-.07-.1-.08l-.16-.16a.86.86,0,0,1-.13-.14s0,0,0,0l-.06-.09-.09-.16c-.09-.17,0,.11,0-.08,0,0-.05-.23,0-.06,0-.06,0-.12,0-.17s0,.08,0,0,.08-.22,0-.09l.1-.18c.07-.11,0,0,0,0a2.47,2.47,0,0,1,.28-.28l.16-.14c-.09.08.06,0,.08-.05a.77.77,0,0,0,.27-1,.75.75,0,0,0-1-.27Z" transform="translate(-616.27 -315.92)"/><path d="M679.15,374.27a2.78,2.78,0,0,1-1.31-1.31,1.84,1.84,0,0,1,.44-1.75c.78-1.12,1.66-2.17,2.45-3.3s1.68-2.5,2.45-3.8c.5-.84,1.08-2.33,2.13-2.59,1.44-.35,2,1.63,2.2,2.64a31.58,31.58,0,0,0,.92,4,21.7,21.7,0,0,0,1.6,3.66c.34.6.76,1.16,1.07,1.77.12.24.38.68.22.95s-.3.12-.22.23c-.54-.78-1.85,0-1.29.76a1.61,1.61,0,0,0,2.54.11c.95-1,.34-2.36-.28-3.35A20.58,20.58,0,0,1,690,368.1a28,28,0,0,1-1-4.34,4.75,4.75,0,0,0-1.93-3.34,2.74,2.74,0,0,0-3.3.31,12.89,12.89,0,0,0-2.28,3.35q-1.26,2.06-2.68,4c-.87,1.2-2.29,2.49-2.49,4a3.61,3.61,0,0,0,2.11,3.45c.84.48,1.6-.82.76-1.29Z" transform="translate(-616.27 -315.92)"/><path d="M682.24,367.77a3.36,3.36,0,0,0,1.66,2.59,3.32,3.32,0,0,0,1.51.45,4.05,4.05,0,0,0,1.71-.37.78.78,0,0,0,.53-.93.76.76,0,0,0-.92-.52c-.25.09-.49.19-.74.26l-.18,0s-.23,0-.1,0h-.35c-.05,0-.2,0-.26-.05a1.34,1.34,0,0,1-.26-.09c.14.1,0,0,0,0l-.12-.07-.23-.14c-.13-.1,0,0,0,0l-.1-.09-.22-.21-.08-.1c-.07-.08.09.14,0,0l-.15-.23-.06-.12c-.06-.14,0,0,0,0s-.08-.24-.09-.28l0-.13c0-.16,0,.15,0,0a.75.75,0,0,0-1.5,0Z" transform="translate(-616.27 -315.92)"/><path d="M682.67,359.63a16.84,16.84,0,0,1,5.77.74c.92.29,1.32-1.16.4-1.44a18.16,18.16,0,0,0-6.17-.8.75.75,0,0,0,0,1.5Z" transform="translate(-616.27 -315.92)"/><path d="M676.92,354.08q9.09.84,18.08,2.44c1,.16,1.35-1.28.4-1.45q-9.18-1.63-18.48-2.49c-1-.09-.95,1.41,0,1.5Z" transform="translate(-616.27 -315.92)"/><path d="M689.58,360.86c3-3.67,7.91-4.34,12.31-3.5a36.86,36.86,0,0,1,6.8,2.09,9.57,9.57,0,0,1,5,3.75.75.75,0,0,0,1.3-.76,10.46,10.46,0,0,0-5.18-4.15,35.1,35.1,0,0,0-7.94-2.45c-4.76-.82-10.12,0-13.32,4-.6.74.45,1.81,1.06,1.06Z" transform="translate(-616.27 -315.92)"/><path d="M688.77,360.24c-2.68,6.22,1.34,12.81,7.2,15.26a19.23,19.23,0,0,0,10.15,1.22,9.64,9.64,0,0,0,7.13-5.46,31.27,31.27,0,0,0,2-5c.5-1.62.8-3.23-.31-4.64-.59-.76-1.65.3-1.06,1.06,1,1.27-.23,3.73-.7,5a17.76,17.76,0,0,1-2.09,4.29c-2.29,3.25-6.08,3.69-9.79,3.31a14.2,14.2,0,0,1-9.35-4.47,9.65,9.65,0,0,1-1.85-9.84c.38-.88-.91-1.64-1.29-.76Z" transform="translate(-616.27 -315.92)"/><path d="M656.73,354.94c-1.67,2.2-1.31,5.55-1.11,8.14a15.47,15.47,0,0,0,2.39,7.74c3.39,4.86,9.31,4.61,14.16,2.18,4.57-2.29,9.46-7,10.3-12.25.91-5.74-5.6-8.76-10.31-9.36a31.84,31.84,0,0,0-10.73.94c-2.27.5-5.86,1-6.06,3.91-.06,1,1.44,1,1.5,0,.14-2,4.47-2.36,5.9-2.66a30.94,30.94,0,0,1,8-.82c4.06.22,11,2.45,10.25,7.69-.64,4.35-4.6,8.33-8.21,10.5-3.93,2.37-9.46,3.74-12.91-.17a12.55,12.55,0,0,1-2.71-7.25c-.23-2.4-.68-5.79.86-7.84.59-.77-.72-1.52-1.29-.75Z" transform="translate(-616.27 -315.92)"/><path d="M691.17,352.43c.83,3.07,4.46,2.3,6.82,2.55a34.68,34.68,0,0,1,4.61,1l4.9,1.2a.76.76,0,0,0,.84-1.1,7.29,7.29,0,0,0-3.12-2.53c-1.42-.7-2.87-1.34-4.34-1.9-3-1.14-6.17-1.83-9.32-1a.75.75,0,0,0,.4,1.45,13.62,13.62,0,0,1,8.25.9c1.29.48,2.55,1,3.8,1.64a6.78,6.78,0,0,1,3,2.2l.85-1.1c-2.75-.67-5.49-1.45-8.27-2a18.36,18.36,0,0,0-3.85-.3c-1.15,0-2.8-.05-3.17-1.4a.75.75,0,0,0-1.44.4Z" transform="translate(-616.27 -315.92)"/><path d="M682.82,352.05c.09.06-.07.32-.11.37-.2.26-.61.23-.89.21a14.93,14.93,0,0,1-1.85-.41,39.55,39.55,0,0,0-4.06-.69,38.85,38.85,0,0,0-8.28-.09l.19,1.47c5-1.82,10.75-3.57,15.74-.87.85.46,1.61-.83.76-1.29-5.39-2.91-11.51-1.26-16.89.72-.74.27-.71,1.56.2,1.47a38.15,38.15,0,0,1,11.48.62c1.37.29,3.33,1.14,4.54,0a1.79,1.79,0,0,0-.07-2.84c-.79-.56-1.54.74-.76,1.29Z" transform="translate(-616.27 -315.92)"/><path d="M652.45,394.42c-2.38-.94-2.14-4.87-2.05-6.9a25.5,25.5,0,0,1,2.14-9.09c.39-.87-.9-1.64-1.29-.76a27.41,27.41,0,0,0-2.38,10.77c0,2.73.25,6.27,3.18,7.43.9.35,1.29-1.1.4-1.45Z" transform="translate(-616.27 -315.92)"/><path d="M711.13,400.74a6.43,6.43,0,0,0,2.18,2.16,2.39,2.39,0,0,0,2.31-.63c1.52-1.18,2.21-3.1,2.73-4.89,1.31-4.49,2.43-9.47.64-14-.35-.89-1.81-.5-1.45.4,1.46,3.67.85,7.61-.12,11.33a18.41,18.41,0,0,1-1.6,4.63,3.55,3.55,0,0,1-1.54,1.62c-.49.2-.76-.14-1.09-.5s-.68-.78-1-1.18c-.59-.76-1.65.3-1.06,1.06Z" transform="translate(-616.27 -315.92)"/><path d="M663.11,352.25a.75.75,0,0,0,0-1.5.75.75,0,0,0,0,1.5Z" transform="translate(-616.27 -315.92)"/><path d="M664.23,352.2c3.58-2.92,7.29-5.9,11.82-7.13s9.59-.78,14.25.13c8.42,1.66,16.74,5.26,22.38,11.93a24.81,24.81,0,0,1,5.8,12.85c.12.95,1.62,1,1.5,0-1.07-8.85-6.9-16.28-14.43-20.76a45.57,45.57,0,0,0-13.19-5.11c-4.86-1.11-10-1.77-14.93-.88-5.57,1-10,4.42-14.26,7.91-.75.61.32,1.66,1.06,1.06Z" transform="translate(-616.27 -315.92)"/><path d="M653.05,399.79a8.69,8.69,0,0,0,.59,7.18,11.35,11.35,0,0,1,1.46,3.57,6.05,6.05,0,0,1-1.28,3.94c-1.21,1.93-2.72,4.12-2,6.52a3.27,3.27,0,0,0,4.42,2.11c.88-.39.12-1.68-.75-1.29a1.81,1.81,0,0,1-2.28-1.39A4.73,4.73,0,0,1,654,417c1-1.71,2.29-3.26,2.55-5.28.23-1.75-.55-3.32-1.33-4.84-1.13-2.19-1.67-4.26-.77-6.66.34-.9-1.1-1.29-1.44-.39Z" transform="translate(-616.27 -315.92)"/><path d="M718.09,389.34a14.24,14.24,0,0,1,.28,10.16c-1.17,3.26-3.64,5.85-5.5,8.72-.53.81.77,1.57,1.29.76,2-3.09,4.59-5.84,5.76-9.4a15.52,15.52,0,0,0-.39-10.64c-.36-.88-1.81-.49-1.44.4Z" transform="translate(-616.27 -315.92)"/><path d="M717.47,385.63a14.11,14.11,0,0,1,3.94,11.13c-.09,1,1.41.95,1.5,0a15.56,15.56,0,0,0-4.38-12.19c-.68-.69-1.74.37-1.06,1.06Z" transform="translate(-616.27 -315.92)"/><path d="M717.93,369.34a27.56,27.56,0,0,1-.56,17.49c-.33.9,1.12,1.29,1.45.39a29,29,0,0,0,.56-18.28c-.28-.92-1.73-.53-1.45.4Z" transform="translate(-616.27 -315.92)"/><path d="M654.64,359c-3.23,3.4-2.72,8.58-4.11,12.79a24,24,0,0,1-3.52,6.74c-1.39,1.85-3.18,3.37-3.45,5.79-.11,1,1.39,1,1.5,0,.25-2.22,2.51-3.95,3.72-5.7a25.49,25.49,0,0,0,3.06-6.05,37.59,37.59,0,0,0,1.42-6.39c.37-2.21.85-4.45,2.44-6.12.66-.7-.4-1.76-1.06-1.06Z" transform="translate(-616.27 -315.92)"/><path d="M642.66,393.81c2.18-7.15,5.92-14.23,12.37-18.37.81-.52.06-1.82-.75-1.29-6.8,4.35-10.77,11.72-13.07,19.26-.28.92,1.17,1.32,1.45.4Z" transform="translate(-616.27 -315.92)"/><path d="M650.68,372a13.46,13.46,0,0,0,.31,8.44.79.79,0,0,0,.93.53.76.76,0,0,0,.52-.92,12.08,12.08,0,0,1-.32-7.65.75.75,0,0,0-1.44-.4Z" transform="translate(-616.27 -315.92)"/><path d="M653.79,412.37c-8.33-3.69-17.52-7.78-22.73-15.65-5.87-8.89-4.64-20.15-3.67-30.19a79.53,79.53,0,0,1,2.9-16.66,38.11,38.11,0,0,1,7.58-13.35A54.82,54.82,0,0,1,661.53,321c17.58-6,37.5-4.08,54.12,4,8.59,4.16,17.43,10.08,22.6,18.28,5.67,9,6,20.8,5,31.07s-4.46,20.68-11,28.87a41.28,41.28,0,0,1-23.45,15,34.18,34.18,0,0,1-7,.7.75.75,0,0,0,0,1.5c9.79,0,19.13-4.15,26.35-10.63,7.76-7,12.7-16.51,15.08-26.59A71.67,71.67,0,0,0,745.1,367a56.89,56.89,0,0,0-2-16.73C740,340.12,732,332.86,723.24,327.39c-16.32-10.17-36.82-14-55.63-9.73a60,60,0,0,0-25.83,12.85,44.91,44.91,0,0,0-9.72,11.59,46.41,46.41,0,0,0-5.18,16c-.84,5.46-1.36,11-1.66,16.55-.3,5.36-.18,10.87,1.4,16,3,9.68,11.11,15.6,19.81,19.9,2.17,1.07,4.38,2.07,6.6,3.05.88.39,1.64-.9.76-1.3Z" transform="translate(-616.27 -315.92)"/><path d="M711.72,447c3.72.45,5.37-3.21,8-5.07.77-.56,1.34-.87,1.79.57,0,.18,0,.36.08.53a1,1,0,0,0,.84.6c1.12.17,1.6-1,1.82-1.86l-.73-.19a40.39,40.39,0,0,1-1.46,6.05,6.14,6.14,0,0,1-.59,1.24,3.22,3.22,0,0,1-.63.75c-1-.16-1.23-.57-.8-1.22a4.91,4.91,0,0,1,2.12-2c1.39-.79,2.85-1.36,3.88-2.63s1.59-3,2.54-4.37c.24-.35-.33-.79-.59-.45a5.75,5.75,0,0,0-1.3,3.68c0,.9.17,2.1,1.31,2.08s2.37-1.23,3.18-2c1.43-1.3,2.85-2.8,4.92-2.78a.38.38,0,0,0,0-.75c-2,0-3.47,1.16-4.85,2.44-.4.37-.8.75-1.21,1.1s-1.29,1.15-1.82,1.15c-1,0-.82-1.56-.7-2.2a4.86,4.86,0,0,1,1-2.23l-.59-.46c-.68,1-1.14,2.13-1.74,3.18a7.16,7.16,0,0,1-3.15,2.89c-1.65.87-4.18,2.15-4,4.41.17,1.92,2.06,1.08,2.83.08,1.59-2.09,1.86-5.33,2.36-7.82.09-.46-.61-.67-.73-.19a3.74,3.74,0,0,1-.12.45c-.08.44-.45.51-1.11.22-.06-.12,0-.35,0-.49a1.25,1.25,0,0,0-.45-.78c-.8-.67-1.83-.22-2.56.32-2.4,1.77-4.07,5.37-7.54,4.95-.48-.06-.47.69,0,.75Z" transform="translate(-616.27 -315.92)"/><path d="M726,441.26a3.28,3.28,0,0,0,1.94.4.38.38,0,0,0,.38-.37.39.39,0,0,0-.38-.38,3,3,0,0,1-.43,0l-.21,0h-.06l-.1,0a3.31,3.31,0,0,1-.42-.12l-.1,0s0,0,0,0l0,0-.21-.1a.37.37,0,1,0-.38.64Z" transform="translate(-616.27 -315.92)"/><path d="M732.06,444.09a.38.38,0,0,0,0-.75.38.38,0,0,0,0,.75Z" transform="translate(-616.27 -315.92)"/></svg>